<?xml version="1.0" encoding="utf-8"?>
<svg version="1.1" id="Layer_1"
xmlns="http://www.w3.org/2000/svg"
xmlns:xlink="http://www.w3.org/1999/xlink"
width="2880px" height="1838px"
xml:space="preserve">
<g id="PathID_1" transform="matrix(6.54873, 0, 0, 6.54873, -584.5, -1477.5)" opacity="1">
<path style="fill:#E31C2A;fill-opacity:1" d="M365.85 392.7L365.8 389.85L366.1 388.65L367 387.7L368.15 387.1L369.55 386.9L370.95 386.7L372.65 386.6L375 386.5L392.85 386.5L395 386.6L397 386.85L398.35 387.2L399.35 387.55L400.2 388.05L400.9 388.5L401.2 389.1L401.4 390.4L401.4 391.95L401.35 407.85L401.4 409.3L401 410.3L400.3 410.85L399.35 411.45L398.2 411.8L396.85 412L395.05 412.35L372.55 412.3L370.8 412.05L369.2 411.8L367.95 411.45L367.05 411L366 409.9L365.8 408.6L365.85 392.7" />
</g>
<g id="PathID_2" transform="matrix(6.54873, 0, 0, 6.54873, -584.5, -1477.5)" opacity="1">
</g>
<g id="PathID_3" transform="matrix(6.54873, 0, 0, 6.54873, -584.5, -1477.5)" opacity="1">
<path style="fill:#FFFFFF;fill-opacity:1" d="M393.35 399.55L385.55 404.1L377.7 408.6L377.7 399.55L377.7 390.5L385.55 395.05L393.35 399.55" />
</g>
<g id="PathID_4" transform="matrix(6.54873, 0, 0, 6.54873, -584.5, -1477.5)" opacity="1">
</g>
<g id="PathID_5" transform="matrix(6.54873, 0, 0, 6.54873, -584.5, -1477.5)" opacity="1">
<path style="fill:#273786;fill-opacity:1" d="M224.65 259.1L225.55 259.65Q225.95 259.95 226.25 260.3Q226.55 260.6 226.8 261L227.15 261.85Q227.4 262.75 227.4 263.45Q227.4 264.2 227.2 264.75Q226.95 265.35 226.5 265.75Q226 266.15 225.3 266.45Q225.15 266.5 224.75 266.45L223.7 266.3L222.2 265.9L220.2 265.4L219.15 265.05L218.25 264.8L217.4 264.65L216.7 264.55Q216.3 276 215.7 285.7Q215.05 295.4 214.2 303.4Q213.35 311.35 212.25 317.6Q211.15 323.85 209.85 328.4Q209.35 330.1 208.7 331.5Q208.1 332.9 207.35 333.95Q206.6 334.95 205.75 335.65Q204.9 336.35 203.95 336.7Q203.5 336.85 202.75 336.95L201 337.15L198.65 337.3L195.75 337.4L193.2 337.3L191.2 337.15L189.65 336.85Q189 336.65 188.65 336.45Q188.2 336.2 187.75 335.75Q187.25 335.3 186.7 334.6L185.5 332.9L184.2 330.75Q181.4 325.85 179.05 321.3Q176.7 316.8 174.75 312.65Q172.85 308.5 171.4 304.75Q169.95 300.95 168.95 297.6L167.2 303.3Q166.2 306.5 164.85 310.35L161.95 318.65L158.4 328.35L155.1 337.2L152.6 344.25L150.8 349.5Q150.1 351.7 149.8 353L149.35 354.2L148.7 355.2Q148.3 355.65 147.8 356Q147.35 356.3 146.75 356.55Q146 356.8 144.9 356.8Q143.8 356.85 142.45 356.55Q141.05 356.3 139.3 355.8L135.6 354.5L134.65 354.05L133.95 353.6L133.45 353.1Q133.25 352.85 133.2 352.55Q133.05 352.1 133.15 351.45Q133.25 350.8 133.65 349.9Q134 349.05 134.6 347.95Q135.2 346.85 136.05 345.55Q136.1 342.3 136 338.65Q135.85 335 135.55 331Q135.25 326.95 134.7 322.5L133.55 313.3Q132.85 308.55 132.1 304.2Q131.35 299.85 130.55 295.9Q129.75 291.95 128.85 288.35Q128 284.75 127.05 281.55L126.1 278.45L125.15 275.8L124.2 273.55L123.3 271.75Q122.9 272.55 122.35 273.95L121.1 277.4L119.45 282L117.55 287.85L117.1 288.8Q116.9 289.25 116.6 289.6Q116.3 289.95 115.95 290.2Q115.6 290.5 115.25 290.65Q114.65 290.85 114.15 290.8Q113.65 290.8 113.25 290.6Q112.85 290.4 112.55 289.95Q112.3 289.55 112.15 288.95L112 288.4L111.95 287.85L112.05 287.2L112.25 286.6L113.25 283.2Q113.85 281.3 114.45 278.95L115.8 273.9L117.3 268Q117.45 266.8 117.75 265.75Q118.1 264.7 118.5 263.8Q118.95 262.9 119.5 262.1Q120.1 261.35 120.8 260.75L121.5 260.15L122.95 259.1L125.25 257.55L128.3 255.5L129.15 254.95L129.9 254.5L130.6 254.15L131.2 253.95Q131.65 253.75 132.1 253.75Q132.55 253.75 132.95 253.95Q133.3 254.1 133.65 254.45Q134 254.8 134.3 255.35L134.75 256.4L135.35 258.1L136.1 260.45L137.05 263.4Q139.75 272.65 141.85 281.5Q143.95 290.35 145.4 298.75Q146.85 307.2 147.65 315.15Q148.5 323.15 148.65 330.7Q152.05 323.6 154.65 316.9Q157.3 310.2 159.15 303.85Q161 297.45 162.05 291.45Q163.15 285.45 163.45 279.85L162.35 274.45L161.45 269.85L160.8 266.1L160.45 263.15Q160.15 260.95 160.05 258.9Q159.95 256.85 160 254.9Q160.05 252.95 160.25 251.15Q160.45 249.3 160.85 247.6Q161.1 246.1 161.5 244.9Q161.9 243.7 162.45 242.8Q162.95 241.9 163.65 241.35Q164.3 240.75 165.1 240.5Q165.75 240.25 166.65 240.2Q167.55 240.2 168.7 240.35Q169.85 240.5 171.25 240.9Q172.65 241.25 174.35 241.8L176 242.4Q176.75 242.75 177.25 243.15Q177.8 243.5 178.15 243.95Q178.5 244.4 178.65 244.9L178.75 245.7L178.8 247.1L178.8 249.1L178.75 251.75Q178.65 254.5 178.45 257.15Q178.2 259.75 177.85 262.25Q177.45 264.75 176.95 267.1Q176.45 269.45 175.8 271.7L176.5 275.75Q176.9 277.85 177.4 279.9L178.4 284.05L179.6 288.25Q180.85 292.55 182.45 296.9Q184.05 301.2 185.9 305.55Q187.8 309.85 189.95 314.15Q192.15 318.5 194.65 322.8Q195.3 323.95 195.95 324.8Q196.6 325.65 197.15 326.2Q197.7 326.7 198.25 326.85Q198.75 327.05 199.25 326.9Q199.75 326.7 200.2 326.15Q200.65 325.55 201.05 324.55Q201.4 323.55 201.75 322.15Q202.1 320.8 202.4 319Q203.9 309.05 204.95 300.45Q206 291.85 206.6 284.55Q207.2 277.25 207.35 271.3Q207.5 265.35 207.2 260.7L206.15 259.9L205.1 259.1L204.05 258.25L202.95 257.4L201.9 256.45Q201.45 255.95 201.1 255.4Q200.7 254.85 200.45 254.25Q200.15 253.65 200 253Q199.8 252.4 199.7 251.75L199.5 250.35Q199.4 249.6 199.4 248.75L199.45 247.1L199.15 244.2L198.9 241.3L198.65 238.45L198.4 235.6Q198.3 233.7 198.5 232.15Q198.7 230.65 199.15 229.5Q199.6 228.4 200.35 227.65Q201.1 226.9 202.1 226.6Q202.9 226.3 203.9 226.15Q204.95 226 206.15 226.05Q207.4 226.1 208.8 226.3Q210.25 226.55 211.9 226.95Q212.85 227.15 213.65 227.65Q214.5 228.1 215.15 228.8Q215.8 229.55 216.3 230.5Q216.8 231.45 217.2 232.65L217.65 234.75Q217.85 235.95 217.9 237.4Q218 238.8 218 240.45L217.85 244.05L217.6 246.7L217.35 249.4L217.15 252.15Q217 253.5 216.95 254.9L217.9 255.5L219.5 256.4L221.75 257.6L224.65 259.1" />
</g>
<g id="PathID_6" transform="matrix(6.54873, 0, 0, 6.54873, -584.5, -1477.5)" opacity="1">
</g>
<g id="PathID_7" transform="matrix(6.54873, 0, 0, 6.54873, -584.5, -1477.5)" opacity="1">
<path style="fill:#273786;fill-opacity:1" d="M271.5 319.4L219.3 319.4L219.3 276.15L271.5 276.15L271.5 284.65L227.6 284.65L227.6 289.75L263.4 289.75L263.4 298.2L227.6 298.2L227.6 310.9L271.5 310.9L271.5 319.4M328.5 309.8Q328.5 311.15 328.05 312.3Q327.6 313.45 326.7 314.45Q325.8 315.45 324.45 316.25Q323.1 317.1 321.35 317.75Q320.1 318.15 318.8 318.45Q317.45 318.75 316 318.95Q314.55 319.15 313 319.25Q311.45 319.4 309.8 319.4L277.85 319.4L277.85 310.9L309.8 310.9Q312.4 310.9 314.35 310.65Q316.3 310.45 317.6 310.05Q318.9 309.65 319.55 309Q320.2 308.4 320.2 307.6L320.2 301.45Q320.2 300.6 319.55 300Q318.9 299.4 317.6 299Q316.3 298.6 314.35 298.4Q312.4 298.2 309.8 298.2L294.9 298.2Q290.6 298.2 287.4 297.65Q284.25 297.15 282.1 296.15Q279.95 295.15 278.9 293.6Q277.85 292.1 277.85 290.1L277.85 284.65Q277.85 282.5 278.9 280.9Q279.95 279.3 282.1 278.25Q284.25 277.2 287.4 276.65Q290.6 276.15 294.9 276.15L326.7 276.15L326.7 284.65L294.9 284.65L292.75 284.65L290.95 284.75L289.55 284.85L288.55 285.05Q287.95 285.15 287.55 285.35Q287.1 285.55 286.85 285.8Q286.55 286.05 286.4 286.4Q286.3 286.7 286.3 287.1L286.3 287.8Q286.3 288.15 286.45 288.5Q286.6 288.8 286.9 289.05Q287.2 289.25 287.7 289.4L288.8 289.65L289.4 289.65L290.6 289.7L292.45 289.7L294.9 289.75L309.8 289.75L313.15 289.8Q314.75 289.9 316.2 290.1L318.95 290.55Q320.25 290.85 321.4 291.25Q323.15 291.8 324.5 292.6Q325.8 293.4 326.7 294.4Q327.6 295.4 328.05 296.6Q328.5 297.8 328.5 299.25L328.5 309.8M383.9 284.65L361.95 284.65L361.95 319.4L353.65 319.4L353.65 284.65L331.7 284.65L331.7 276.15L383.9 276.15L383.9 284.65" />
</g>
<g id="PathID_8" transform="matrix(6.54873, 0, 0, 6.54873, -584.5, -1477.5)" opacity="1">
</g>
<g id="PathID_9" transform="matrix(6.54873, 0, 0, 6.54873, -584.5, -1477.5)" opacity="1">
<path style="fill:#273786;fill-opacity:1" d="M306.65 370.65L273 370.65Q271.3 370.65 269.75 370.5Q268.2 370.4 266.8 370.2Q265.35 370 264.05 369.7L261.55 369.05Q259.7 368.4 258.35 367.6Q256.95 366.75 256.05 365.75Q255.15 364.75 254.7 363.5Q254.25 362.3 254.25 360.9L254.25 336.5Q254.25 335.15 254.7 334Q255.15 332.8 256.05 331.85Q256.95 330.85 258.3 330Q259.65 329.2 261.5 328.55Q262.75 328.05 264.1 327.7Q265.45 327.35 266.9 327.15Q268.35 326.9 269.85 326.8Q271.4 326.7 273 326.7L306.65 326.7L306.65 335.3L273 335.3Q270.45 335.3 268.5 335.55Q266.6 335.85 265.35 336.45Q264.05 337.05 263.4 337.95Q262.8 338.8 262.8 340L262.8 358.2Q262.8 359.15 263.4 359.85Q264.05 360.55 265.35 361.05Q266.6 361.5 268.5 361.75Q270.45 362 273 362L306.65 362L306.65 370.65M324.45 370.65L316.1 370.65L316.1 326.7L324.45 326.7L324.45 370.65M383.25 335.3L361.2 335.3L361.2 370.65L352.9 370.65L352.9 335.3L330.85 335.3L330.85 326.7L383.25 326.7L383.25 335.3M438.55 360.9Q438.55 362.2 438.05 363.35Q437.6 364.55 436.7 365.55Q435.8 366.5 434.4 367.35Q433.05 368.15 431.25 368.85Q429.95 369.3 428.6 369.6Q427.25 369.95 425.8 370.2Q424.35 370.4 422.85 370.5Q421.3 370.65 419.75 370.65L394.45 370.65L394.45 362L419.75 362Q422.35 362 424.3 361.75Q426.25 361.55 427.55 361.1Q428.85 360.65 429.5 359.95Q430.2 359.3 430.2 358.4L430.2 356.9L404.9 356.9Q403.2 356.9 401.65 356.75Q400.1 356.65 398.65 356.45Q397.25 356.2 395.9 355.85Q394.6 355.55 393.45 355.1Q391.6 354.4 390.2 353.5Q388.85 352.6 387.95 351.5Q387.05 350.35 386.6 349Q386.15 347.65 386.15 346.1L386.15 326.7L394.45 326.7L394.45 328.3L394.45 331.75L394.45 337.1L394.45 344.35Q394.45 345.3 395.1 346.05Q395.75 346.8 397.05 347.3Q398.35 347.75 400.3 348Q402.25 348.3 404.9 348.3L430.2 348.3L430.2 326.7L438.55 326.7L438.55 360.9" />
</g>
<g id="PathID_10" transform="matrix(6.54873, 0, 0, 6.54873, -584.5, -1477.5)" opacity="1">
</g>
<g id="PathID_11" transform="matrix(6.54873, 0, 0, 6.54873, -584.5, -1477.5)" opacity="1">
<path style="fill:#273786;fill-opacity:1" d="M219.5 420.65L203.35 420.65L176.65 406.15L171.65 406.15L171.65 420.65L163.35 420.65L163.35 378.2L196.95 378.2L200.6 378.25L203.8 378.5L206.5 378.85L208.7 379.4Q210.4 379.9 211.7 380.7Q213 381.45 213.85 382.5Q214.7 383.5 215.15 384.8Q215.6 386.1 215.6 387.65L215.6 397.95Q215.6 398.95 215.3 399.85Q215 400.75 214.4 401.55Q213.8 402.35 212.95 403.05Q212.05 403.7 210.9 404.3Q209.95 404.75 208.95 405.1Q207.95 405.45 206.9 405.65Q205.85 405.9 204.75 406Q203.65 406.15 202.55 406.15L192.15 406.15L219.5 420.65M207.25 395.55L207.25 389.25Q207.25 388.55 206.6 388.05Q205.95 387.5 204.65 387.2Q203.4 386.85 201.45 386.65Q199.5 386.5 196.95 386.5L171.65 386.5L171.65 397.95L202.7 397.9L203.35 397.85L204.05 397.75L204.7 397.55L205.45 397.35Q205.9 397.2 206.2 397L206.8 396.6L207.1 396.1Q207.25 395.85 207.25 395.55M273.9 420.65L265.6 420.65L265.6 407.35L230 407.35L230 420.65L221.7 420.65L221.7 391.65Q221.7 389.9 222.1 388.4Q222.55 386.85 223.4 385.55Q224.25 384.2 225.55 383.1Q226.85 381.95 228.6 381.05Q229.9 380.3 231.3 379.8Q232.7 379.25 234.2 378.9Q235.65 378.55 237.2 378.35Q238.8 378.2 240.45 378.2L254.65 378.2Q256.35 378.2 257.95 378.4Q259.6 378.6 261.2 379Q262.75 379.4 264.25 380Q265.75 380.6 267.2 381.45Q268.85 382.4 270.1 383.5Q271.4 384.65 272.2 385.9Q273.05 387.2 273.45 388.6Q273.9 390.05 273.9 391.65L273.9 420.65M265.6 393.4Q265.6 392.7 265.35 392.05Q265.15 391.35 264.75 390.75Q264.35 390.15 263.75 389.6Q263.15 389.05 262.35 388.55Q261.5 388 260.6 387.65Q259.7 387.25 258.75 387Q257.8 386.75 256.75 386.6Q255.75 386.5 254.65 386.5L240.45 386.5L238.65 386.6Q237.8 386.75 236.9 387.05Q236.05 387.3 235.15 387.75Q234.3 388.15 233.45 388.75Q232.55 389.3 231.9 389.85Q231.25 390.45 230.85 391Q230.4 391.6 230.2 392.2Q230 392.8 230 393.4L230 399.05L265.6 399.05L265.6 393.4M333.45 411.2Q333.45 412.4 332.95 413.45Q332.5 414.5 331.6 415.45Q330.65 416.4 329.3 417.2Q327.9 418 326.1 418.7L323.3 419.55Q321.95 419.9 320.5 420.15Q319.1 420.4 317.65 420.5Q316.2 420.65 314.75 420.65L281.2 420.65L281.2 378.2L314.75 378.2Q316.4 378.2 318 378.3Q319.55 378.4 321 378.6Q322.4 378.8 323.75 379.1Q325.05 379.4 326.25 379.85Q328.05 380.45 329.4 381.2Q330.75 382 331.65 383Q332.55 383.95 333 385.1Q333.45 386.3 333.45 387.65L333.45 411.2M325.15 407.7L325.15 389.6Q325.15 388.8 324.45 388.25Q323.8 387.65 322.5 387.25Q321.2 386.85 319.25 386.65Q317.3 386.5 314.75 386.5L289.5 386.5L289.5 412.3L314.75 412.3L316.15 412.2L317.65 412L319.15 411.7L320.75 411.3Q321.8 410.95 322.65 410.55Q323.45 410.2 324 409.75Q324.55 409.3 324.85 408.75Q325.15 408.25 325.15 407.7M349.8 420.65L341.45 420.65L341.45 378.2L349.8 378.2L349.8 420.65M409.6 411.2Q409.6 412.5 409.15 413.65Q408.7 414.8 407.8 415.75Q406.9 416.75 405.55 417.5Q404.2 418.3 402.45 418.95Q401.15 419.35 399.8 419.65L397.05 420.2Q395.6 420.4 394.05 420.5Q392.5 420.65 390.9 420.65L376.05 420.65Q374.45 420.65 373 420.5Q371.5 420.4 370.05 420.15Q368.65 419.9 367.3 419.55Q365.9 419.25 364.65 418.8Q362.8 418.15 361.45 417.35Q360.05 416.55 359.15 415.6Q358.25 414.65 357.8 413.55Q357.35 412.45 357.35 411.2L357.35 387.65Q357.35 386.3 357.75 385.1Q358.2 383.95 359.1 382.95Q360 381.95 361.35 381.15Q362.65 380.4 364.45 379.8Q365.65 379.35 367 379.05Q368.3 378.75 369.75 378.55Q371.2 378.35 372.75 378.25L376.05 378.2L390.9 378.2Q395.55 378.2 399.05 378.75Q402.55 379.35 404.9 380.55Q407.25 381.7 408.4 383.5Q409.6 385.25 409.6 387.65L409.6 411.2M401.3 409.1L401.3 389.85Q401.3 389 400.65 388.35Q400 387.7 398.7 387.3Q397.4 386.9 395.45 386.7Q393.5 386.5 390.9 386.5L376.05 386.5Q373.5 386.5 371.6 386.7Q369.7 386.9 368.4 387.3Q367.15 387.7 366.5 388.35Q365.9 389 365.9 389.85L365.9 409.1Q365.9 409.9 366.5 410.5Q367.15 411.1 368.4 411.5Q369.7 411.9 371.6 412.1Q373.5 412.3 376.05 412.3L390.9 412.3Q393.5 412.3 395.45 412.1Q397.4 411.9 398.7 411.5Q400 411.1 400.65 410.5Q401.3 409.9 401.3 409.1" />
</g>
<g id="PathID_12" transform="matrix(6.54873, 0, 0, 6.54873, -584.5, -1477.5)" opacity="1">
</g>
<g id="PathID_13" transform="matrix(6.54873, 0, 0, 6.54873, -584.5, -1477.5)" opacity="1">
<path style="fill:#E31C2A;fill-opacity:1" d="M275.4 465.3L281.25 442.65L281.35 442.15L281.45 441.6L281.5 441.1L281.55 440.55L281.5 440.2L281.45 439.9L281.35 439.55L281.25 439.2L291.15 439.2L291.15 440.8L291.45 440.35L291.75 440L292.1 439.7L292.5 439.5L292.9 439.35L293.4 439.25L293.95 439.2L294.65 439.2L299.95 439.2L300.75 439.2L301.45 439.25L302.1 439.35L302.65 439.5L303.1 439.65L303.55 439.9L304 440.2L304.45 440.6L305 441.25L305.45 442L305.7 442.85Q305.8 443.25 305.8 443.75L305.75 444.15L305.7 444.75L305.55 445.4L305.4 446.2L303.4 453.8Q303.25 454.4 303 454.9L302.55 455.85L302 456.65L301.35 457.3L300.5 457.75L299.55 458.1Q299 458.25 298.4 458.3Q297.85 458.4 297.2 458.4L290.3 458.4L289.6 458.35L289.05 458.25L288.6 458.15L288.25 458L287.9 457.7L287.6 457.4L287.3 456.95L287.05 456.5L285.7 461.85L285.55 462.3L285.5 462.85L285.45 463.35L285.45 463.9L285.45 464.2L285.5 464.55L285.55 464.9L285.7 465.3L275.4 465.3M294.55 442.9L292.45 442.9L291.9 442.9L291.45 442.95L291.1 443.05L290.85 443.25L290.6 443.4L290.45 443.7L290.3 444.1L290.15 444.6L288.25 451.9Q288.15 452.1 288.15 452.35L288.05 452.75L288.05 453.1L288.05 453.45Q288.05 453.75 288.15 453.95Q288.25 454.2 288.45 454.35Q288.65 454.5 289 454.55Q289.35 454.65 289.8 454.65L292 454.65L292.5 454.6L292.95 454.5L293.3 454.4L293.6 454.25L293.75 453.95L294 453.5L294.2 452.9L294.4 452.15L296.15 445.45L296.15 445.25L296.2 445.1L296.25 444.95L296.35 444.8L296.4 444.55L296.45 444.3L296.45 444.15L296.5 444L296.45 443.7L296.35 443.45L296.2 443.25L296.05 443.15L295.75 443L295.45 442.95L295.05 442.9L294.55 442.9M330.75 454.25L329.05 458.4L312.35 458.4Q311.6 458.4 310.95 458.3L309.8 458.05Q309.25 457.9 308.8 457.65L308 457.1L307.2 456.3Q306.9 455.9 306.7 455.45L306.4 454.55L306.3 453.55L306.3 453.15L306.3 452.8L306.4 452.4L306.5 452L308.7 443.55Q308.95 442.4 309.45 441.6Q310 440.75 310.75 440.25Q311.5 439.7 312.5 439.4Q313.5 439.15 314.8 439.2L326.8 439.2L327.75 439.2L328.6 439.25L329.35 439.3L330 439.45L330.5 439.55L331 439.8L331.45 440.05L331.9 440.4L332.55 441.15Q332.85 441.5 333.05 441.95Q333.25 442.4 333.35 442.9Q333.45 443.4 333.45 444L333.4 444.45L333.4 444.9L333.3 445.35L333.2 445.85L332 450.65L316.2 450.65L315.75 452.45L315.65 452.75L315.6 453.05L315.6 453.25L315.6 453.5L315.6 453.65L315.6 453.8L315.7 453.95L315.8 454.15L315.9 454.25L316.05 454.35L316.2 454.45L316.35 454.5L316.55 454.5L316.9 454.55L317.4 454.6L318.1 454.65L327.35 454.65L328.4 454.6L329.3 454.5L330.05 454.4L330.75 454.25M317.2 446.95L323.55 446.95L324.1 444.75L324.15 444.45L324.2 444.25L324.2 444.05L324.25 443.9Q324.25 443.65 324.15 443.45Q324.05 443.25 323.9 443.15Q323.7 443 323.45 442.95L322.9 442.9L319.9 442.9L319.4 442.9L319 442.95L318.65 443.05L318.45 443.25L318.25 443.45L318.05 443.75L317.9 444.2L317.75 444.75L317.2 446.95M347.4 439.2L346.95 440.95L347.25 440.4L347.55 440L347.85 439.7L348.15 439.5L348.45 439.35L348.9 439.25L349.5 439.2L350.2 439.2L356.5 439.2L357.7 439.25Q358.3 439.35 358.8 439.55L359.75 440L360.55 440.7L361.1 441.45L361.55 442.25L361.8 443.15Q361.9 443.6 361.9 444.15L361.85 444.8L361.75 445.5L361.6 446.3L361.45 447.2L359.4 454.95L359.25 455.4L359.2 455.9L359.15 456.45L359.15 457L359.15 457.3L359.2 457.65L359.25 458L359.4 458.4L348.35 458.4L348.7 457.85L349 457.3L349.25 456.85L349.5 456.4L349.65 455.9L349.85 455.35L350.05 454.65L350.25 453.95L352.45 445.4L352.6 444.8L352.7 444.35L352.75 444.05L352.8 443.9Q352.8 443.7 352.7 443.55L352.55 443.25L352.3 443.05L351.95 442.95L351.8 442.9L351.6 442.9L351.3 442.9L350.95 442.9L348.7 442.9L348.15 442.9L347.7 443Q347.5 443 347.35 443.1L347.1 443.25Q346.95 443.3 346.85 443.45L346.7 443.8L346.55 444.2L346.4 444.75L343.75 454.95L343.6 455.4L343.55 455.95L343.5 456.45L343.5 457.05L343.5 457.35L343.55 457.65L343.6 458L343.75 458.4L332.7 458.4L333 457.85L333.3 457.3L333.55 456.85L333.8 456.4L333.95 455.9L334.15 455.35L334.35 454.65L334.6 453.95L337.55 442.65L337.6 442.15L337.7 441.6L337.7 441.1L337.75 440.6L337.7 440.25L337.7 439.9L337.6 439.55L337.5 439.2L347.4 439.2M385.95 439.2L384.95 442.9L377.35 442.9L374.85 452.65L374.8 452.75L374.8 452.9L374.8 453.05L374.8 453.2L374.8 453.55L374.95 453.85L375.1 454.1L375.4 454.3L375.75 454.45L376.2 454.55L376.75 454.6L377.4 454.65L379.95 454.65L380.8 454.6L381.6 454.5L382.4 454.3L383.2 454.05L382.1 458.4L372.55 458.4L371.6 458.35L370.75 458.3L370 458.25L369.4 458.2L368.8 458.05L368.3 457.9L367.85 457.75L367.55 457.55L367.05 457.15Q366.8 457 366.6 456.75L366.25 456.3L365.95 455.8L365.65 455.25L365.5 454.7L365.35 454.15L365.35 453.6L365.35 453.25L365.4 452.85L365.45 452.45L365.6 452.05L367.95 442.9L364 442.9L364.95 439.2L368.95 439.2L369.85 435.5L379.45 434.95L378.35 439.2L385.95 439.2M396.7 439.2L396.65 439.55L396.65 439.95L396.65 440.35L396.65 440.85L396.6 441.2L396.55 441.6L396.5 442L396.5 442.45L396.95 441.55L397.5 440.8L398 440.25L398.6 439.85Q398.85 439.65 399.2 439.55Q399.55 439.4 399.95 439.35L400.85 439.2L401.85 439.2L407.15 439.2L405.55 445.45L404.95 445L404.2 444.75Q403.8 444.6 403.35 444.55L402.35 444.5L399.05 444.5L398.45 444.5L397.95 444.55L397.55 444.65L397.25 444.85L396.95 445.05L396.75 445.35Q396.6 445.5 396.55 445.7L396.4 446.15L394.15 454.95L394 455.4L393.95 455.95L393.9 456.45L393.9 457.05L393.9 457.35L393.95 457.65L394 458L394.15 458.4L383.1 458.4L383.4 457.85L383.7 457.3L383.95 456.85L384.2 456.4L384.35 455.9L384.55 455.35L384.75 454.65L385 453.95L387.95 442.65L388.05 442.15L388.1 441.6L388.15 441.1L388.2 440.6L388.15 440.25L388.1 439.9L388 439.55L387.9 439.2L396.7 439.2M433.8 439.2L429.7 454.95L429.55 455.4L429.5 455.95L429.45 456.45L429.45 457L429.45 457.3L429.5 457.65L429.55 458L429.7 458.4L421.05 458.4L420.95 456.85Q420.75 457.2 420.45 457.5Q420.2 457.8 419.85 458Q419.55 458.2 419.1 458.3Q418.7 458.4 418.2 458.4L411 458.4Q410.4 458.4 409.85 458.3L408.85 458.15Q408.4 458.05 408 457.85L407.35 457.5L406.85 457.15L406.45 456.75L406.1 456.3L405.8 455.85L405.55 455.3L405.35 454.8L405.25 454.25L405.25 453.8L405.25 453.4L405.3 452.95L405.4 452.45L405.55 451.9L407.95 442.65L408.05 442.15L408.15 441.6L408.15 441.1L408.2 440.6L408.15 440.25L408.1 439.9L408.05 439.55L407.95 439.2L418.25 439.2L414.7 452.85L414.65 453.05L414.6 453.2L414.6 453.35L414.6 453.55L414.65 454Q414.75 454.2 414.95 454.35Q415.15 454.5 415.4 454.55Q415.7 454.65 416.1 454.65L418.7 454.65L419.15 454.6L419.5 454.55L419.8 454.45L420.1 454.35L420.3 454.1L420.5 453.85L420.65 453.45L420.8 453.05L423.5 442.65L423.6 442.1L423.65 441.6L423.7 441.05L423.75 440.6L423.7 440.25L423.65 439.9L423.6 439.55L423.5 439.2L433.8 439.2" />
</g>
<g id="PathID_14" transform="matrix(6.54873, 0, 0, 6.54873, -584.5, -1477.5)" opacity="1">
</g>
<g id="PathID_15" transform="matrix(6.54873, 0, 0, 6.54873, -584.5, -1477.5)" opacity="1">
<path style="fill:#E31C2A;fill-opacity:1" d="M196.1 463.4L225.8 463.4L225.2 469.25L224.6 468.95L223.9 468.8Q223.55 468.7 223.15 468.7L222.4 468.65L215.85 468.65L210.1 491.1L209.9 491.7L209.8 492.3L209.75 492.95L209.75 493.65L209.75 494L209.8 494.4L209.9 494.85L210.1 495.3L195.75 495.3L196.15 494.6L196.5 494L196.85 493.4L197.15 492.9L197.35 492.3L197.6 491.6L197.8 490.75L198.1 489.85L203.55 468.65L196.7 468.65L195.85 468.65L195.1 468.75L194.35 468.95L193.7 469.2L196.1 463.4M239.65 463.4L238.05 469.6L226.55 469.6L228.15 463.4L239.65 463.4M237.5 471.85L232.5 491.1L232.35 491.7L232.25 492.3L232.2 492.95L232.2 493.65L232.2 494L232.25 494.4L232.35 494.85L232.5 495.3L219 495.3L219.4 494.6L219.75 494L220.05 493.4L220.35 492.9L220.55 492.3L220.8 491.6L221.05 490.75L221.3 489.85L224.9 476.1L225 475.45L225.1 474.8L225.15 474.2L225.2 473.55L225.15 473.15L225.1 472.7L225 472.25L224.85 471.85L237.5 471.85M253.8 471.85L253.2 474.1L253.6 473.45L254 472.9L254.4 472.5L254.85 472.25L255.3 472.05L255.9 471.95L256.65 471.85L257.55 471.85L269.15 471.85L269.85 471.85L270.5 471.95L271 472.1Q271.25 472.15 271.45 472.3L271.75 472.55L272.05 472.95L272.3 473.45L272.6 474.1L272.9 473.45L273.25 472.95L273.6 472.55L273.95 472.3Q274.1 472.15 274.35 472.1L274.85 471.95L275.5 471.85L276.25 471.85L284.6 471.85L285.9 471.95Q286.5 472.05 287.05 472.25Q287.6 472.45 288.1 472.75Q288.55 473.05 289 473.5Q289.45 473.95 289.8 474.45Q290.2 475 290.4 475.6Q290.65 476.15 290.75 476.8Q290.9 477.45 290.9 478.15L290.85 478.6L290.75 479.2L290.6 479.95L290.45 480.9L287.8 491.1L287.65 491.7L287.55 492.3L287.5 492.95L287.5 493.65L287.5 494L287.55 494.4L287.65 494.85L287.8 495.3L274.25 495.3L274.7 494.6L275.05 494L275.35 493.4L275.65 492.9L275.85 492.3L276.1 491.6L276.3 490.75L276.6 489.85L279.3 479.4L279.4 478.95L279.45 478.55L279.5 478.2L279.55 477.95Q279.55 477.55 279.4 477.25Q279.25 476.95 278.95 476.75Q278.7 476.55 278.25 476.45L277.3 476.4L274.45 476.4L273.85 476.4L273.3 476.5L272.9 476.65Q272.7 476.75 272.6 476.9L272.3 477.15L272.1 477.55L271.85 478.1L271.7 478.75L268.5 491.1L268.35 491.7L268.25 492.3L268.2 492.95L268.2 493.65L268.2 494L268.25 494.4L268.35 494.85L268.55 495.3L255 495.3L255.4 494.6L255.8 494L256.1 493.4L256.4 492.9L256.6 492.3L256.85 491.6L257.05 490.75L257.35 489.85L260 479.65L260.15 478.95L260.25 478.4L260.3 478.05L260.35 477.85L260.3 477.5L260.2 477.25L260.05 477L259.85 476.8L259.55 476.6L259.2 476.5L258.8 476.4L258.4 476.4L255.6 476.4L254.8 476.4L254.2 476.5L253.7 476.65Q253.5 476.7 253.35 476.85L253.05 477.15L252.8 477.6L252.6 478.2Q252.45 478.5 252.4 478.95L249.25 491.1L249.1 491.7L249 492.3L248.95 492.95L248.95 493.65L248.95 494L249 494.4L249.1 494.85L249.25 495.3L235.75 495.3L236.15 494.6L236.5 494L236.8 493.4L237.1 492.9L237.3 492.3L237.55 491.6L237.8 490.75L238.05 489.85L241.65 476.1L241.75 475.45L241.85 474.8L241.9 474.2L241.95 473.55L241.9 473.15L241.85 472.7L241.75 472.25L241.6 471.85L253.8 471.85M311.5 463.4L309.95 469.6L298.45 469.6L300.05 463.4L311.5 463.4M309.35 471.85L304.35 491.1L304.2 491.7L304.1 492.3L304.05 492.95L304.05 493.65L304.05 494L304.1 494.4L304.2 494.85L304.35 495.3L290.85 495.3L291.25 494.6L291.65 494L291.95 493.4L292.25 492.9L292.45 492.3L292.7 491.6L292.9 490.75L293.2 489.85L296.75 476.1L296.85 475.45L296.95 474.8L297 474.2L297.05 473.55L297 473.15L296.95 472.7L296.85 472.25L296.75 471.85L309.35 471.85M321.8 495.3L321.3 497.25L322.55 497.25L323.55 497.25L324.4 497.35L325.1 497.5L325.65 497.75Q325.85 497.85 326 498.05L326.25 498.45L326.4 498.95Q326.5 499.25 326.5 499.6L326.45 499.9L326.45 500.2L326.35 500.5L326.3 500.85L325.95 502.35L325.55 503.4Q325.4 503.85 325.15 504.25L324.7 504.9L324.15 505.35L323.4 505.6Q322.95 505.75 322.4 505.8L321.1 505.95L319.55 506L314.05 506L314.45 502L314.8 502.15L315.15 502.3L315.55 502.4L315.9 502.5L316.3 502.5L316.8 502.55L317.45 502.55L318.25 502.6L319.25 502.6L320 502.55L320.6 502.5L321.05 502.45L321.35 502.35L321.6 502.05Q321.75 501.95 321.8 501.75L321.95 501.4L322 500.95L321.95 500.7L321.85 500.5L321.75 500.35L321.6 500.3L321.3 500.2L320.95 500.15L320.45 500.15L319.85 500.15L317.5 500.15L318.75 495.3L307.8 495.3L308.35 490.05L309 490.25L309.55 490.4L310 490.5L310.4 490.6L310.85 490.6L311.75 490.65L313.05 490.7L314.75 490.75L324 490.75Q324.4 490.75 324.75 490.6Q325.05 490.5 325.25 490.3Q325.45 490.1 325.55 489.8Q325.7 489.5 325.7 489.1L325.65 488.85L325.65 488.7L325.55 488.55L325.45 488.45L325.3 488.35L325.1 488.3L324.8 488.3L324.5 488.3L317.6 488.3L316.55 488.25L315.7 488.25L314.9 488.15L314.3 488.1L313.75 487.95L313.25 487.85L312.8 487.65L312.45 487.45Q311.9 487.05 311.5 486.6Q311.1 486.15 310.85 485.65Q310.6 485.1 310.45 484.5Q310.35 483.9 310.35 483.25L310.35 482.85L310.35 482.5L310.4 482.2L310.5 481.9L311.75 477.1Q312 476.25 312.35 475.55L313 474.35Q313.35 473.8 313.75 473.4Q314.2 473 314.65 472.8Q315 472.55 315.5 472.4Q316 472.2 316.6 472.1L317.95 471.9L319.6 471.85L340.4 471.85L340.15 477.25L339.55 477L338.95 476.8L338.35 476.65L337.8 476.55L337.15 476.45L336.35 476.4L335.45 476.4L334.4 476.4L324.5 476.4L323.8 476.45L323.3 476.7Q323.1 476.85 323 477.05Q322.9 477.3 322.9 477.6L322.9 477.8L322.95 478L323.05 478.15L323.25 478.3L323.45 478.35L323.75 478.4L324.2 478.4L324.75 478.45L333.05 478.45L334.15 478.5L335.15 478.75L336.05 479.1Q336.45 479.35 336.8 479.7L337.45 480.45Q337.75 480.85 337.95 481.3Q338.15 481.7 338.25 482.2Q338.35 482.65 338.35 483.15L338.3 483.6L338.25 484.15L338.15 484.8L338 485.5L337.05 489.1L336.8 489.95L336.55 490.75L336.25 491.4L336 492L335.65 492.45L335.25 492.9L334.8 493.35L334.35 493.8L333.7 494.2L333.1 494.55L332.45 494.8L331.8 495L331 495.1L330.1 495.2L328.95 495.25L327.7 495.3L321.8 495.3M352.55 471.85L366.8 471.85L367.55 471.85L368.2 471.85L368.75 471.9L369.25 472L369.65 472.1L370.05 472.25L370.5 472.45L370.95 472.7L371.55 473.1L372.15 473.6L372.65 474.2L373.1 474.85L373.4 475.55L373.65 476.3L373.8 477.1L373.85 477.95L373.8 478.55L373.7 479.2L373.6 479.85L373.45 480.65L371.25 489.2L370.95 490.1L370.7 490.85L370.4 491.55L370.15 492.1L369.85 492.55L369.45 493L369 493.45L368.5 493.9L367.95 494.25L367.35 494.6L366.7 494.85L366.05 495.05L365.25 495.15L364.3 495.25L363.15 495.25L361.85 495.3L347.7 495.3L346.4 495.25L345.4 495.25L344.55 495.15L344 495.1L343.5 494.95L343.05 494.8L342.55 494.5L342.1 494.2Q341.5 493.75 341.1 493.2Q340.65 492.7 340.4 492.1Q340.1 491.5 339.95 490.8Q339.85 490.15 339.85 489.45L339.85 489L339.9 488.5L340 488L340.15 487.45L342.8 477.2L343.25 475.75L343.9 474.6Q344.3 474.1 344.75 473.7Q345.2 473.3 345.75 473Q346.25 472.7 346.95 472.5Q347.65 472.25 348.5 472.1Q349.35 471.95 350.35 471.9L352.55 471.85M354 478.5L351.5 488.1L351.35 488.6L351.3 489L351.25 489.25L351.25 489.45L351.25 489.75L351.35 490L351.55 490.25L351.8 490.45L352.1 490.55L352.45 490.65L352.9 490.7L353.5 490.75L356.9 490.75L357.6 490.7L358.15 490.65L358.65 490.55L359 490.4L359.25 490.15L359.45 489.8L359.65 489.35L359.85 488.8L362.2 479.7L362.3 479.15L362.4 478.7L362.45 478.3L362.5 478L362.45 477.6L362.35 477.25L362.15 477L361.95 476.8L361.6 476.6L361.15 476.5L360.65 476.4L360.1 476.4L357.2 476.4L356.4 476.4L355.8 476.5L355.3 476.6L354.95 476.8Q354.8 476.85 354.65 477.05L354.4 477.4L354.15 477.9L354 478.5M379.85 471.85L401.3 471.85L402 471.85L402.65 471.9L403.2 472L403.7 472.15L404.1 472.25L404.55 472.5Q404.8 472.6 405 472.8L405.45 473.15L405.9 473.55L406.3 474.05L406.7 474.6L407.05 475.25L407.3 475.85L407.5 476.5L407.6 477.1L407.65 477.75L407.6 478.4L407.5 479.15L407.3 480L407.1 480.95L404.5 491.1L404.35 491.65L404.25 492.3L404.2 492.95L404.2 493.65L404.2 494L404.25 494.4L404.35 494.85L404.5 495.3L393.15 495.3L393 494.85L392.9 494.4L392.85 493.95L392.85 493.55L392.85 493.45L392.85 493.35L392.85 493.2L392.85 493L392.45 493.55Q392.3 493.85 392.05 494.05Q391.85 494.3 391.6 494.45L391.15 494.8L390.55 495L389.9 495.15L389.15 495.25L388.3 495.3L381.5 495.3Q380.7 495.3 380 495.2L378.65 494.95Q378 494.75 377.5 494.45Q376.95 494.2 376.55 493.85Q376 493.4 375.6 492.95Q375.15 492.45 374.9 491.95Q374.65 491.4 374.5 490.8L374.4 489.6L374.4 489.1L374.5 488.55L374.6 488L374.75 487.4L375.35 485.15Q375.5 484.35 375.75 483.65Q376 483 376.35 482.45Q376.65 481.9 377 481.5Q377.35 481.1 377.8 480.8Q378.2 480.5 378.7 480.3Q379.25 480.05 379.9 479.9Q380.55 479.75 381.3 479.7L383 479.65L393.95 479.65L394.5 479.6L395 479.55L395.35 479.45L395.6 479.35L395.85 479L396.05 478.65L396.2 478.2L396.25 477.7L396.2 477.35L396.1 477.05L395.9 476.8L395.7 476.7L395.35 476.55L394.95 476.45L394.4 476.4L393.75 476.4L382.3 476.4L380.75 476.45L379.4 476.6Q378.75 476.7 378.25 476.9Q377.75 477.05 377.35 477.3L379.85 471.85M394.7 484.15L389.15 484.15L388.5 484.15L387.95 484.2L387.55 484.3L387.3 484.45Q387.15 484.5 387.05 484.65L386.85 485L386.7 485.4L386.55 486L385.9 488.4L385.8 488.7L385.75 489L385.7 489.25L385.7 489.4L385.7 489.75L385.8 490.05L385.95 490.25L386.2 490.45L386.5 490.55L386.9 490.65L387.4 490.7L388 490.75L390.8 490.75L391.45 490.7L392 490.7L392.45 490.6L392.75 490.5L392.9 490.3L393.05 490L393.2 489.6L393.4 489.1L394.7 484.15M423.95 471.85L423.9 472.25L423.9 472.75L423.9 473.3L423.9 473.9L423.85 474.35L423.8 474.8L423.75 475.3L423.7 475.85L424.3 474.75Q424.6 474.25 424.95 473.9Q425.25 473.5 425.6 473.2L426.3 472.7Q426.6 472.45 427.05 472.3L427.95 472.05L429 471.9L430.25 471.85L436.75 471.85L434.75 479.55Q434.45 479.25 434.05 479L433.15 478.65L432.1 478.4Q431.5 478.3 430.85 478.3L426.8 478.3L426.1 478.3L425.5 478.4L425 478.55Q424.75 478.6 424.6 478.75L424.25 479L424 479.35L423.75 479.8L423.6 480.35L420.85 491.1L420.7 491.7L420.6 492.3L420.55 492.95L420.55 493.65L420.55 494L420.6 494.4L420.7 494.85L420.85 495.3L407.3 495.3L407.75 494.6L408.1 494L408.4 493.4L408.7 492.9L408.9 492.3L409.15 491.6L409.35 490.75L409.65 489.85L413.25 476.1L413.35 475.45L413.45 474.8L413.5 474.2L413.55 473.55L413.5 473.15L413.45 472.7L413.35 472.25L413.2 471.85L423.95 471.85M438.9 471.85L460.35 471.85L461.05 471.85L461.7 471.9L462.25 472L462.75 472.15L463.15 472.25L463.6 472.5Q463.85 472.6 464.05 472.8L464.5 473.15L464.95 473.55L465.35 474.05L465.75 474.6L466.05 475.25L466.3 475.85L466.5 476.5L466.6 477.1L466.65 477.75L466.6 478.4L466.5 479.15L466.35 480L466.15 480.95L463.5 491.1L463.35 491.65L463.25 492.3L463.2 492.95L463.2 493.65L463.2 494L463.25 494.4L463.35 494.85L463.5 495.3L452.2 495.3L452.05 494.85L451.95 494.4L451.9 493.95L451.9 493.55L451.9 493.45L451.9 493.35L451.9 493.2L451.9 493L451.5 493.55L451.1 494.05L450.65 494.45L450.15 494.8L449.55 495L448.9 495.15L448.15 495.25L447.35 495.3L440.55 495.3Q439.7 495.3 439 495.2L437.65 494.95Q437.05 494.75 436.5 494.45Q436 494.2 435.55 493.85Q435 493.4 434.6 492.95Q434.2 492.45 433.95 491.95Q433.7 491.4 433.55 490.8L433.45 489.6L433.45 489.1L433.5 488.55L433.6 488L433.8 487.4L434.35 485.15L434.8 483.65L435.35 482.45Q435.65 481.9 436 481.5Q436.35 481.1 436.8 480.8Q437.2 480.5 437.7 480.3Q438.25 480.05 438.9 479.9Q439.55 479.75 440.35 479.7L442 479.65L452.95 479.65L453.55 479.6L454 479.55L454.35 479.45L454.6 479.35L454.85 479Q455 478.85 455.05 478.65L455.2 478.2L455.25 477.7L455.2 477.35L455.1 477.05L454.95 476.8L454.75 476.7L454.4 476.55L453.95 476.45L453.4 476.4L452.75 476.4L441.35 476.4L439.75 476.45L438.4 476.6Q437.75 476.7 437.25 476.9Q436.75 477.05 436.35 477.3L438.9 471.85M453.75 484.15L448.2 484.15L447.55 484.15L447 484.2L446.6 484.3L446.35 484.45Q446.2 484.5 446.1 484.65L445.9 485L445.7 485.4L445.55 486L444.95 488.4L444.85 488.7L444.75 489L444.75 489.25L444.75 489.4L444.75 489.75L444.85 490.05L445 490.25L445.25 490.45L445.5 490.55L445.9 490.65L446.4 490.7L447 490.75L449.85 490.75L450.5 490.7L451.05 490.7L451.45 490.6L451.75 490.5L451.9 490.3L452.1 490L452.25 489.6L452.45 489.1L453.75 484.15" />
</g>
<g id="PathID_16" transform="matrix(6.54873, 0, 0, 6.54873, -584.5, -1477.5)" opacity="1">
</g>
<g id="PathID_17" transform="matrix(6.54873, 0, 0, 6.54873, -584.5, -1477.5)" opacity="1">
<path style="fill:#E31C2A;fill-opacity:1" d="M152 360.55L158.55 360.55L131.4 461.85L131.25 462.35L131.2 462.9L131.15 463.4L131.15 464L131.25 465Q131.35 465.45 131.55 465.85Q131.75 466.25 132.05 466.6Q132.35 466.95 132.75 467.25Q133.3 467.55 134 467.8Q134.75 468.1 135.6 468.25Q136.5 468.45 137.55 468.55Q138.6 468.65 139.8 468.65L148.9 468.65L146.9 476.2L89.55 476.2L91.65 468.65L102.2 468.65Q103.9 468.65 105.3 468.15Q106.7 467.65 107.8 466.7Q108.85 465.75 109.65 464.35Q110.45 462.9 111 461.05L131.4 384.75L131.5 384.3L131.55 383.85L131.6 383.45L131.65 383.05Q131.65 382.5 131.5 382.05Q131.4 381.55 131.2 381.15L130.65 380.35L129.9 379.7Q129.45 379.4 128.8 379.15Q128.2 378.9 127.45 378.75L125.75 378.5L123.75 378.45L112.95 378.45L115 371.15Q118.65 371 121.9 370.75L128.05 370.1Q130.9 369.7 133.4 369.15Q135.9 368.65 138 368Q140.1 367.3 142 366.5Q143.9 365.75 145.65 364.8Q147.4 363.85 149 362.8Q150.55 361.75 152 360.55" />
</g>
<g id="PathID_18" transform="matrix(6.54873, 0, 0, 6.54873, -584.5, -1477.5)" opacity="1">
</g>
<g id="PathID_19" transform="matrix(6.54873, 0, 0, 6.54873, -584.5, -1477.5)" opacity="1">
<path style="fill:#E31C2A;fill-opacity:1" d="M413.15 300.1L413.75 300.2L414.35 300.45L414.8 300.7L415.25 301L415.7 301.45L416.05 301.95Q416.2 302.2 416.25 302.5L416.35 303.1L416.3 303.35L416.3 303.6L416.25 303.9L416.2 304.2L415.55 306.75L415.25 307.55L414.9 308.2L414.45 308.75L413.95 309.2L413.3 309.45L412.45 309.7L411.5 309.85L410.4 309.9L400.75 309.9L399.85 309.9Q399.35 309.9 398.95 309.8Q398.5 309.75 398.15 309.6Q397.75 309.5 397.45 309.3L396.9 308.9Q396.6 308.65 396.4 308.35Q396.2 308.1 396.1 307.8L395.9 307.2L395.85 306.55L395.85 306.25L395.85 305.95L395.9 305.65L396 305.35L396.7 302.7Q396.85 302.05 397.2 301.55Q397.6 301.05 398.15 300.75Q398.7 300.4 399.5 300.25Q400.3 300.1 401.3 300.1L400.65 299.95L400.05 299.75L399.55 299.5L399.15 299.2L398.7 298.75L398.4 298.3L398.25 297.8L398.2 297.3L398.2 297.05L398.2 296.75L398.25 296.45L398.35 296.2L398.95 294L399.2 293.15L399.6 292.45L400.1 291.9Q400.4 291.65 400.75 291.5Q401.05 291.3 401.4 291.2Q401.75 291.05 402.15 291Q402.5 290.9 402.9 290.9Q403.3 290.85 403.7 290.9L414.55 290.9L415.35 290.95L416.1 291.1L416.75 291.4L417.35 291.85L417.6 292.05L417.85 292.3L418.1 292.6L418.3 292.95L418.4 293.25L418.55 293.6L418.6 293.9L418.65 294.25L418.6 294.5L418.6 294.75L418.55 294.95L418.55 295.15L418 297.2L417.75 297.85L417.4 298.45Q417.25 298.7 417 298.9Q416.8 299.15 416.55 299.3L415.95 299.6L415.2 299.8L414.25 299.95L413.15 300.1M406 295.1L405.55 296.9L405.5 297.1L405.45 297.3L405.45 297.45L405.45 297.65L405.45 297.95L405.55 298.25L405.7 298.45L405.9 298.6L406.05 298.6L406.25 298.65L406.5 298.65L406.85 298.7L409.05 298.7L409.4 298.65L409.7 298.65L409.95 298.55L410.2 298.45L410.3 298.25L410.45 298.05L410.6 297.75L410.7 297.45L411.15 295.8L411.2 295.55L411.25 295.3L411.25 295.1L411.3 294.95Q411.3 294.7 411.2 294.5L410.95 294.25Q410.75 294.1 410.5 294.05L409.95 294L407.55 294L407.2 294L406.9 294.05L406.65 294.1L406.5 294.25L406.35 294.35L406.2 294.55L406.05 294.8L406 295.1M404 302.95L403.45 304.95L403.35 305.25L403.3 305.45L403.3 305.65L403.3 305.85L403.3 306.05L403.4 306.25L403.5 306.4L403.7 306.55L403.9 306.6L404.2 306.7L404.55 306.7L404.95 306.75L406.7 306.75L407.1 306.7L407.5 306.65L407.8 306.6L408.05 306.5L408.2 306.35L408.35 306.1L408.5 305.8L408.65 305.5L409.15 303.5L409.15 303.3L409.2 303.15L409.2 302.95L409.25 302.8Q409.25 302.55 409.15 302.35Q409.1 302.15 408.95 302.05L408.55 301.9L408.1 301.85L405.45 301.85Q405.15 301.8 404.9 301.85L404.5 302.05Q404.3 302.2 404.2 302.4Q404.05 302.65 404 302.95M436.2 300.1L436.8 300.2L437.35 300.45L437.8 300.7L438.25 301L438.7 301.45L439.05 301.95Q439.2 302.2 439.25 302.5L439.35 303.1L439.3 303.35L439.3 303.6L439.25 303.9L439.2 304.2L438.55 306.75L438.25 307.55L437.9 308.2L437.45 308.75L436.95 309.2L436.3 309.45L435.45 309.7L434.5 309.85L433.4 309.9L423.75 309.9L422.85 309.9Q422.35 309.9 421.95 309.8Q421.5 309.75 421.15 309.6Q420.75 309.5 420.45 309.3L419.9 308.9Q419.6 308.65 419.4 308.35Q419.2 308.1 419.1 307.8L418.9 307.2L418.85 306.55L418.85 306.25L418.85 305.95L418.9 305.65L419 305.35L419.7 302.7Q419.85 302.05 420.2 301.55Q420.6 301.05 421.15 300.75Q421.75 300.4 422.5 300.25Q423.3 300.1 424.3 300.1L423.65 299.95L423.05 299.75L422.55 299.5L422.15 299.2L421.7 298.75L421.4 298.3L421.25 297.8L421.2 297.3L421.2 297.05L421.2 296.75L421.3 296.45L421.4 296.2L421.95 294L422.2 293.15L422.6 292.45L423.1 291.9Q423.4 291.65 423.75 291.5L424.45 291.2L425.15 291L425.9 290.9Q426.3 290.85 426.7 290.9L437.55 290.9L438.35 290.95L439.1 291.1L439.8 291.4L440.4 291.85L440.65 292.05L440.85 292.3L441.1 292.6L441.3 292.95L441.4 293.25L441.55 293.6L441.6 293.9L441.65 294.25L441.6 294.5L441.6 294.75L441.55 294.95L441.55 295.15L441 297.2L440.75 297.85L440.45 298.45L440.05 298.9L439.6 299.3L438.95 299.6L438.2 299.8L437.25 299.95L436.2 300.1M429 295.1L428.55 296.9L428.5 297.1L428.45 297.3L428.45 297.45L428.45 297.65L428.45 297.95L428.55 298.25L428.7 298.45L428.9 298.6L429.05 298.6L429.25 298.65L429.5 298.65L429.85 298.7L432.05 298.7L432.4 298.65L432.7 298.65L432.95 298.55L433.2 298.45L433.3 298.25L433.45 298.05L433.6 297.75L433.7 297.45L434.15 295.8L434.2 295.55L434.25 295.3L434.25 295.1L434.3 294.95Q434.3 294.7 434.2 294.5L433.95 294.25Q433.8 294.1 433.55 294.05L433 294L430.55 294L430.2 294L429.95 294.05L429.7 294.1Q429.55 294.15 429.5 294.25L429.35 294.35L429.2 294.55L429.05 294.8L429 295.1M427 302.95L426.45 304.95L426.35 305.25L426.3 305.45L426.3 305.65L426.3 305.85L426.3 306.05L426.4 306.25L426.5 306.4L426.7 306.55L426.9 306.6L427.2 306.7L427.55 306.7L428 306.75L429.7 306.75L430.15 306.7L430.5 306.65L430.8 306.6L431.05 306.5L431.2 306.35L431.35 306.1L431.5 305.8L431.65 305.5L432.15 303.5L432.15 303.3L432.2 303.15L432.2 302.95L432.25 302.8Q432.25 302.55 432.15 302.35Q432.1 302.15 431.95 302.05L431.55 301.9L431.1 301.85L428.45 301.85Q428.15 301.8 427.9 301.85L427.5 302.05Q427.3 302.2 427.2 302.4Q427.05 302.65 427 302.95M442.45 304.95L449.55 304.95L448.3 309.9L442.8 313.7L440.25 313.7L443.8 309.9L441.2 309.9L442.45 304.95M470.1 300.1L470.7 300.2L471.25 300.45L471.7 300.7L472.15 301L472.6 301.45L472.95 301.95Q473.1 302.2 473.15 302.5L473.25 303.1L473.2 303.35L473.2 303.6L473.15 303.9L473.1 304.2L472.45 306.75L472.15 307.55L471.8 308.2L471.35 308.75Q471.15 309 470.85 309.2L470.2 309.45L469.35 309.7L468.4 309.85L467.3 309.9L457.7 309.9L456.75 309.9Q456.25 309.9 455.85 309.8Q455.4 309.75 455.05 309.6Q454.65 309.5 454.35 309.3L453.8 308.9Q453.5 308.65 453.3 308.35Q453.1 308.1 453 307.8L452.8 307.2L452.75 306.55L452.75 306.25L452.75 305.95L452.8 305.65L452.9 305.35L453.6 302.7Q453.75 302.05 454.1 301.55Q454.5 301.05 455.05 300.75Q455.65 300.4 456.4 300.25Q457.2 300.1 458.2 300.1L457.55 299.95L456.95 299.75L456.45 299.5L456.05 299.2L455.6 298.75L455.35 298.3L455.15 297.8L455.1 297.3L455.1 297.05L455.15 296.75L455.2 296.45L455.3 296.2L455.85 294L456.1 293.15L456.5 292.45L457 291.9Q457.3 291.65 457.65 291.5L458.35 291.2L459.05 291L459.8 290.9Q460.2 290.85 460.6 290.9L471.45 290.9L472.25 290.95L473 291.1L473.7 291.4L474.3 291.85L474.55 292.05L474.75 292.3L475 292.6L475.2 292.95L475.3 293.25L475.45 293.6L475.5 293.9L475.55 294.25L475.5 294.5L475.5 294.75L475.45 294.95L475.45 295.15L474.9 297.2L474.65 297.85L474.35 298.45L473.95 298.9L473.5 299.3L472.85 299.6L472.1 299.8L471.15 299.95L470.1 300.1M462.9 295.1L462.45 296.9L462.4 297.1L462.35 297.3L462.35 297.45L462.35 297.65L462.35 297.95L462.45 298.25L462.6 298.45L462.85 298.6L462.95 298.6L463.15 298.65L463.4 298.65L463.75 298.7L465.95 298.7L466.3 298.65L466.6 298.65L466.85 298.55L467.1 298.45L467.2 298.25L467.35 298.05L467.5 297.75L467.6 297.45L468.05 295.8L468.1 295.55L468.15 295.3L468.15 295.1L468.2 294.95Q468.2 294.7 468.1 294.5L467.85 294.25Q467.7 294.1 467.45 294.05L466.9 294L464.45 294L464.1 294L463.85 294.05L463.6 294.1Q463.45 294.15 463.4 294.25L463.25 294.35L463.1 294.55L462.95 294.8L462.9 295.1M460.9 302.95L460.4 304.95L460.3 305.25L460.2 305.45L460.2 305.65L460.2 305.85L460.2 306.05L460.3 306.25L460.4 306.4L460.6 306.55L460.8 306.6L461.1 306.7L461.45 306.7L461.9 306.75L463.6 306.75L464.05 306.7L464.4 306.65L464.7 306.6L464.95 306.5L465.1 306.35L465.25 306.1L465.4 305.8L465.55 305.5L466.05 303.5L466.05 303.3L466.1 303.15L466.1 302.95L466.15 302.8Q466.15 302.55 466.05 302.35Q466 302.15 465.85 302.05L465.5 301.9L465.05 301.85L462.35 301.85Q462.05 301.8 461.8 301.85L461.4 302.05Q461.2 302.2 461.1 302.4Q460.95 302.65 460.9 302.95M498.9 295.9L498.2 298.6L492.7 298.6L490.45 307.4L490.35 307.7L490.25 308.1L490.25 308.45L490.25 308.9L490.25 309.1L490.25 309.35L490.35 309.6L490.45 309.9L482.4 309.9L482.65 309.45L482.85 309.1L483.05 308.75L483.2 308.45L483.3 308.05L483.45 307.65L483.6 307.15L483.8 306.65L485.85 298.6L482.75 298.6L483.45 295.9L486.55 295.9L486.75 295.15L486.95 294.35L487.15 293.7L487.35 293.2L487.6 292.8L487.8 292.4L488.05 292.1L488.4 291.8L488.8 291.6L489.1 291.4L489.5 291.25L489.85 291.1L490.25 291.05L490.7 290.95L491.25 290.9L491.85 290.9L492.55 290.9L500.4 290.9L500 294.05L499.55 293.8L499 293.65L498.45 293.6Q498.15 293.55 497.85 293.6L495.75 293.6L495.2 293.6L494.8 293.6L494.45 293.65L494.25 293.75Q494.15 293.75 494.1 293.85L493.95 294L493.8 294.2L493.75 294.5L493.4 295.9L498.9 295.9M506.65 295.9L506.3 297.25L506.5 296.85L506.75 296.55L507 296.3L507.25 296.15L507.5 296L507.9 295.95L508.35 295.9L508.9 295.9L515.75 295.9L516.2 295.9L516.55 295.95L516.85 296.05L517.15 296.2L517.3 296.35L517.5 296.55L517.65 296.85L517.8 297.25L518 296.85L518.2 296.55L518.4 296.3L518.65 296.15Q518.7 296.05 518.85 296L519.15 295.95L519.55 295.9L520 295.9L524.95 295.9L525.7 295.95Q526.1 296 526.4 296.15Q526.75 296.25 527.05 296.45L527.6 296.9L528.05 297.45L528.45 298.1Q528.6 298.45 528.65 298.85Q528.75 299.2 528.75 299.65L528.7 299.95L528.65 300.3L528.55 300.75L528.45 301.3L526.85 307.4L526.75 307.7L526.7 308.1L526.7 308.45L526.7 308.9L526.7 309.1L526.7 309.35L526.75 309.6L526.85 309.9L518.8 309.9L519.05 309.45L519.3 309.1L519.45 308.75L519.65 308.45L519.75 308.1L519.9 307.65L520.05 307.15L520.2 306.65L521.85 300.4L521.85 300.1L521.9 299.9L521.9 299.7L521.95 299.55Q521.95 299.3 521.85 299.1L521.6 298.85Q521.4 298.7 521.15 298.65L520.6 298.6L518.95 298.6L518.55 298.6L518.25 298.65L518 298.75L517.85 298.9L517.65 299.05L517.5 299.3L517.4 299.6L517.3 300.05L515.4 307.4L515.3 307.7L515.2 308.1L515.2 308.45L515.2 308.9L515.2 309.1L515.25 309.35L515.3 309.6L515.4 309.9L507.35 309.9L507.6 309.45L507.8 309.1L508 308.75L508.15 308.45L508.3 308.1L508.45 307.65L508.6 307.15L508.75 306.65L510.3 300.55L510.4 300.1L510.45 299.8L510.5 299.6L510.55 299.5L510.5 299.25L510.45 299.1L510.35 298.95L510.2 298.85L510 298.7L509.85 298.65L509.6 298.6L509.4 298.6L507.7 298.6L507.25 298.6L506.85 298.65L506.55 298.75L506.4 298.9L506.2 299.05L506.05 299.3L505.9 299.65L505.8 300.1L503.95 307.4L503.85 307.7L503.75 308.1L503.75 308.45L503.75 308.9L503.75 309.1L503.75 309.35L503.85 309.6L503.95 309.9L495.9 309.9L496.1 309.45L496.35 309.1L496.5 308.75L496.7 308.45L496.8 308.1L496.95 307.65L497.1 307.15L497.25 306.65L499.4 298.45L499.45 298.05L499.5 297.7L499.55 297.3L499.6 296.95L499.55 296.65L499.5 296.4L499.45 296.15L499.4 295.9L506.65 295.9" />
</g>
<g id="PathID_20" transform="matrix(6.54873, 0, 0, 6.54873, -584.5, -1477.5)" opacity="1">
</g>
</svg>
